<mxfile host="Electron" modified="2023-11-14T12:25:54.906Z" agent="Mozilla/5.0 (Windows NT 10.0; Win64; x64) AppleWebKit/537.36 (KHTML, like Gecko) draw.io/22.0.3 Chrome/114.0.5735.289 Electron/25.8.4 Safari/537.36" etag="tjFVM349LQyVDU2h7yM7" version="22.0.3" type="device">
  <diagram name="Pagina-1" id="bzBAKvZOI3X0a3ml0ed8">
    <mxGraphModel dx="1036" dy="606" grid="1" gridSize="10" guides="1" tooltips="1" connect="1" arrows="1" fold="1" page="1" pageScale="1" pageWidth="827" pageHeight="1169" math="0" shadow="0">
      <root>
        <mxCell id="0" />
        <mxCell id="1" parent="0" />
        <mxCell id="qlyrx20pTb7VL4pUrBTq-1" value="Admin" style="shape=umlLifeline;perimeter=lifelinePerimeter;whiteSpace=wrap;html=1;container=0;dropTarget=0;collapsible=0;recursiveResize=0;outlineConnect=0;portConstraint=eastwest;newEdgeStyle={&quot;edgeStyle&quot;:&quot;elbowEdgeStyle&quot;,&quot;elbow&quot;:&quot;vertical&quot;,&quot;curved&quot;:0,&quot;rounded&quot;:0};" parent="1" vertex="1">
          <mxGeometry x="30" y="30" width="100" height="650" as="geometry" />
        </mxCell>
        <mxCell id="qlyrx20pTb7VL4pUrBTq-2" value="" style="html=1;points=[];perimeter=orthogonalPerimeter;outlineConnect=0;targetShapes=umlLifeline;portConstraint=eastwest;newEdgeStyle={&quot;edgeStyle&quot;:&quot;elbowEdgeStyle&quot;,&quot;elbow&quot;:&quot;vertical&quot;,&quot;curved&quot;:0,&quot;rounded&quot;:0};" parent="qlyrx20pTb7VL4pUrBTq-1" vertex="1">
          <mxGeometry x="45" y="70" width="10" height="480" as="geometry" />
        </mxCell>
        <mxCell id="qlyrx20pTb7VL4pUrBTq-3" value="" style="edgeStyle=elbowEdgeStyle;rounded=0;orthogonalLoop=1;jettySize=auto;html=1;elbow=vertical;curved=0;" parent="1" source="qlyrx20pTb7VL4pUrBTq-5" target="qlyrx20pTb7VL4pUrBTq-10" edge="1">
          <mxGeometry relative="1" as="geometry">
            <Array as="points">
              <mxPoint x="294" y="180" />
            </Array>
          </mxGeometry>
        </mxCell>
        <mxCell id="qlyrx20pTb7VL4pUrBTq-4" value="3:Click()" style="edgeLabel;html=1;align=center;verticalAlign=middle;resizable=0;points=[];" parent="qlyrx20pTb7VL4pUrBTq-3" vertex="1" connectable="0">
          <mxGeometry x="0.235" y="-2" relative="1" as="geometry">
            <mxPoint x="-14" y="-12" as="offset" />
          </mxGeometry>
        </mxCell>
        <mxCell id="qlyrx20pTb7VL4pUrBTq-5" value="" style="html=1;points=[];perimeter=orthogonalPerimeter;outlineConnect=0;targetShapes=umlLifeline;portConstraint=eastwest;newEdgeStyle={&quot;edgeStyle&quot;:&quot;elbowEdgeStyle&quot;,&quot;elbow&quot;:&quot;vertical&quot;,&quot;curved&quot;:0,&quot;rounded&quot;:0};" parent="1" vertex="1">
          <mxGeometry x="249" y="140" width="10" height="40" as="geometry" />
        </mxCell>
        <mxCell id="qlyrx20pTb7VL4pUrBTq-6" value="" style="edgeStyle=elbowEdgeStyle;rounded=0;orthogonalLoop=1;jettySize=auto;html=1;elbow=vertical;curved=0;" parent="1" source="qlyrx20pTb7VL4pUrBTq-47" target="qlyrx20pTb7VL4pUrBTq-5" edge="1">
          <mxGeometry relative="1" as="geometry">
            <mxPoint x="210" y="180" as="sourcePoint" />
            <Array as="points">
              <mxPoint x="230" y="140" />
            </Array>
          </mxGeometry>
        </mxCell>
        <mxCell id="qlyrx20pTb7VL4pUrBTq-7" value="2:create" style="edgeLabel;html=1;align=center;verticalAlign=middle;resizable=0;points=[];" parent="qlyrx20pTb7VL4pUrBTq-6" vertex="1" connectable="0">
          <mxGeometry x="0.245" y="-5" relative="1" as="geometry">
            <mxPoint x="-15" y="-15" as="offset" />
          </mxGeometry>
        </mxCell>
        <mxCell id="qlyrx20pTb7VL4pUrBTq-8" value="" style="edgeStyle=elbowEdgeStyle;rounded=0;orthogonalLoop=1;jettySize=auto;html=1;elbow=vertical;curved=0;" parent="1" source="qlyrx20pTb7VL4pUrBTq-10" target="qlyrx20pTb7VL4pUrBTq-13" edge="1">
          <mxGeometry relative="1" as="geometry">
            <Array as="points">
              <mxPoint x="384" y="220" />
            </Array>
          </mxGeometry>
        </mxCell>
        <mxCell id="qlyrx20pTb7VL4pUrBTq-9" value="3.1:create" style="edgeLabel;html=1;align=center;verticalAlign=middle;resizable=0;points=[];" parent="qlyrx20pTb7VL4pUrBTq-8" vertex="1" connectable="0">
          <mxGeometry x="-0.3723" relative="1" as="geometry">
            <mxPoint x="5" y="-10" as="offset" />
          </mxGeometry>
        </mxCell>
        <mxCell id="qlyrx20pTb7VL4pUrBTq-10" value="" style="html=1;points=[];perimeter=orthogonalPerimeter;outlineConnect=0;targetShapes=umlLifeline;portConstraint=eastwest;newEdgeStyle={&quot;edgeStyle&quot;:&quot;elbowEdgeStyle&quot;,&quot;elbow&quot;:&quot;vertical&quot;,&quot;curved&quot;:0,&quot;rounded&quot;:0};" parent="1" vertex="1">
          <mxGeometry x="339" y="180" width="10" height="40" as="geometry" />
        </mxCell>
        <mxCell id="qlyrx20pTb7VL4pUrBTq-11" value="" style="edgeStyle=elbowEdgeStyle;rounded=0;orthogonalLoop=1;jettySize=auto;html=1;elbow=horizontal;curved=0;" parent="1" source="qlyrx20pTb7VL4pUrBTq-13" target="qlyrx20pTb7VL4pUrBTq-14" edge="1">
          <mxGeometry relative="1" as="geometry">
            <Array as="points">
              <mxPoint x="464" y="260" />
            </Array>
          </mxGeometry>
        </mxCell>
        <mxCell id="qlyrx20pTb7VL4pUrBTq-12" value="4:create" style="edgeLabel;html=1;align=center;verticalAlign=middle;resizable=0;points=[];" parent="qlyrx20pTb7VL4pUrBTq-11" vertex="1" connectable="0">
          <mxGeometry x="-0.2427" y="2" relative="1" as="geometry">
            <mxPoint y="-8" as="offset" />
          </mxGeometry>
        </mxCell>
        <mxCell id="qlyrx20pTb7VL4pUrBTq-13" value="" style="html=1;points=[];perimeter=orthogonalPerimeter;outlineConnect=0;targetShapes=umlLifeline;portConstraint=eastwest;newEdgeStyle={&quot;edgeStyle&quot;:&quot;elbowEdgeStyle&quot;,&quot;elbow&quot;:&quot;vertical&quot;,&quot;curved&quot;:0,&quot;rounded&quot;:0};" parent="1" vertex="1">
          <mxGeometry x="414" y="220" width="10" height="40" as="geometry" />
        </mxCell>
        <mxCell id="qlyrx20pTb7VL4pUrBTq-14" value="" style="html=1;points=[];perimeter=orthogonalPerimeter;outlineConnect=0;targetShapes=umlLifeline;portConstraint=eastwest;newEdgeStyle={&quot;edgeStyle&quot;:&quot;elbowEdgeStyle&quot;,&quot;elbow&quot;:&quot;vertical&quot;,&quot;curved&quot;:0,&quot;rounded&quot;:0};" parent="1" vertex="1">
          <mxGeometry x="499" y="260" width="10" height="50" as="geometry" />
        </mxCell>
        <mxCell id="qlyrx20pTb7VL4pUrBTq-15" value="" style="endArrow=none;dashed=1;html=1;rounded=0;" parent="1" source="qlyrx20pTb7VL4pUrBTq-21" target="qlyrx20pTb7VL4pUrBTq-13" edge="1">
          <mxGeometry width="50" height="50" relative="1" as="geometry">
            <mxPoint x="419" y="310" as="sourcePoint" />
            <mxPoint x="534" y="340" as="targetPoint" />
          </mxGeometry>
        </mxCell>
        <mxCell id="qlyrx20pTb7VL4pUrBTq-16" value="" style="endArrow=classic;html=1;rounded=0;" parent="1" source="qlyrx20pTb7VL4pUrBTq-1" target="qlyrx20pTb7VL4pUrBTq-14" edge="1">
          <mxGeometry width="50" height="50" relative="1" as="geometry">
            <mxPoint x="110" y="280" as="sourcePoint" />
            <mxPoint x="410" y="250" as="targetPoint" />
            <Array as="points">
              <mxPoint x="290" y="280" />
            </Array>
          </mxGeometry>
        </mxCell>
        <mxCell id="qlyrx20pTb7VL4pUrBTq-17" value="4.1:Seleziona &quot;insersci risultati&quot;" style="edgeLabel;html=1;align=center;verticalAlign=middle;resizable=0;points=[];" parent="qlyrx20pTb7VL4pUrBTq-16" vertex="1" connectable="0">
          <mxGeometry x="-0.543" y="1" relative="1" as="geometry">
            <mxPoint x="-5" y="-9" as="offset" />
          </mxGeometry>
        </mxCell>
        <mxCell id="qlyrx20pTb7VL4pUrBTq-18" value="" style="endArrow=none;dashed=1;html=1;rounded=0;" parent="1" target="qlyrx20pTb7VL4pUrBTq-21" edge="1">
          <mxGeometry width="50" height="50" relative="1" as="geometry">
            <mxPoint x="419" y="310" as="sourcePoint" />
            <mxPoint x="419" y="260" as="targetPoint" />
          </mxGeometry>
        </mxCell>
        <mxCell id="qlyrx20pTb7VL4pUrBTq-19" value="" style="edgeStyle=elbowEdgeStyle;rounded=0;orthogonalLoop=1;jettySize=auto;html=1;elbow=vertical;curved=0;" parent="1" source="qlyrx20pTb7VL4pUrBTq-21" target="qlyrx20pTb7VL4pUrBTq-25" edge="1">
          <mxGeometry relative="1" as="geometry">
            <Array as="points">
              <mxPoint x="464" y="380" />
            </Array>
          </mxGeometry>
        </mxCell>
        <mxCell id="qlyrx20pTb7VL4pUrBTq-20" value="4.3:destroy" style="edgeLabel;html=1;align=center;verticalAlign=middle;resizable=0;points=[];" parent="qlyrx20pTb7VL4pUrBTq-19" vertex="1" connectable="0">
          <mxGeometry x="-0.424" y="-3" relative="1" as="geometry">
            <mxPoint x="14" y="-13" as="offset" />
          </mxGeometry>
        </mxCell>
        <mxCell id="qlyrx20pTb7VL4pUrBTq-21" value="" style="html=1;points=[];perimeter=orthogonalPerimeter;outlineConnect=0;targetShapes=umlLifeline;portConstraint=eastwest;newEdgeStyle={&quot;edgeStyle&quot;:&quot;elbowEdgeStyle&quot;,&quot;elbow&quot;:&quot;vertical&quot;,&quot;curved&quot;:0,&quot;rounded&quot;:0};" parent="1" vertex="1">
          <mxGeometry x="414" y="310" width="10" height="70" as="geometry" />
        </mxCell>
        <mxCell id="qlyrx20pTb7VL4pUrBTq-22" value="" style="endArrow=classic;html=1;rounded=0;entryX=1;entryY=0;entryDx=0;entryDy=0;entryPerimeter=0;" parent="1" source="qlyrx20pTb7VL4pUrBTq-14" target="qlyrx20pTb7VL4pUrBTq-21" edge="1">
          <mxGeometry width="50" height="50" relative="1" as="geometry">
            <mxPoint x="484" y="290" as="sourcePoint" />
            <mxPoint x="534" y="240" as="targetPoint" />
          </mxGeometry>
        </mxCell>
        <mxCell id="qlyrx20pTb7VL4pUrBTq-23" value="4.2:save" style="edgeLabel;html=1;align=center;verticalAlign=middle;resizable=0;points=[];" parent="qlyrx20pTb7VL4pUrBTq-22" vertex="1" connectable="0">
          <mxGeometry x="-0.184" y="1" relative="1" as="geometry">
            <mxPoint x="-4" y="-11" as="offset" />
          </mxGeometry>
        </mxCell>
        <mxCell id="qlyrx20pTb7VL4pUrBTq-24" value="" style="endArrow=none;dashed=1;html=1;rounded=0;" parent="1" source="qlyrx20pTb7VL4pUrBTq-25" target="qlyrx20pTb7VL4pUrBTq-14" edge="1">
          <mxGeometry width="50" height="50" relative="1" as="geometry">
            <mxPoint x="504" y="340" as="sourcePoint" />
            <mxPoint x="429" y="270" as="targetPoint" />
          </mxGeometry>
        </mxCell>
        <mxCell id="qlyrx20pTb7VL4pUrBTq-25" value="" style="html=1;points=[];perimeter=orthogonalPerimeter;outlineConnect=0;targetShapes=umlLifeline;portConstraint=eastwest;newEdgeStyle={&quot;edgeStyle&quot;:&quot;elbowEdgeStyle&quot;,&quot;elbow&quot;:&quot;vertical&quot;,&quot;curved&quot;:0,&quot;rounded&quot;:0};" parent="1" vertex="1">
          <mxGeometry x="499" y="360" width="10" height="20" as="geometry" />
        </mxCell>
        <mxCell id="qlyrx20pTb7VL4pUrBTq-26" value="" style="ellipse;shape=umlEntity;whiteSpace=wrap;html=1;" parent="1" vertex="1">
          <mxGeometry x="700" y="490" width="50" height="50" as="geometry" />
        </mxCell>
        <mxCell id="qlyrx20pTb7VL4pUrBTq-27" value="" style="endArrow=classic;html=1;rounded=0;" parent="1" source="qlyrx20pTb7VL4pUrBTq-21" target="qlyrx20pTb7VL4pUrBTq-49" edge="1">
          <mxGeometry width="50" height="50" relative="1" as="geometry">
            <mxPoint x="484" y="290" as="sourcePoint" />
            <mxPoint x="540" y="340" as="targetPoint" />
            <Array as="points">
              <mxPoint x="500" y="340" />
            </Array>
          </mxGeometry>
        </mxCell>
        <mxCell id="qlyrx20pTb7VL4pUrBTq-28" value="5:create" style="edgeLabel;html=1;align=center;verticalAlign=middle;resizable=0;points=[];" parent="qlyrx20pTb7VL4pUrBTq-27" vertex="1" connectable="0">
          <mxGeometry x="-0.3514" y="-1" relative="1" as="geometry">
            <mxPoint x="-5" y="-11" as="offset" />
          </mxGeometry>
        </mxCell>
        <mxCell id="qlyrx20pTb7VL4pUrBTq-29" value="" style="ellipse;shape=umlControl;whiteSpace=wrap;html=1;" parent="1" vertex="1">
          <mxGeometry x="406.5" y="180" width="25" height="30" as="geometry" />
        </mxCell>
        <mxCell id="qlyrx20pTb7VL4pUrBTq-30" value=":modificareGaraControl" style="text;html=1;strokeColor=none;fillColor=none;align=center;verticalAlign=middle;whiteSpace=wrap;rounded=0;" parent="1" vertex="1">
          <mxGeometry x="474" y="180" width="60" height="30" as="geometry" />
        </mxCell>
        <mxCell id="qlyrx20pTb7VL4pUrBTq-31" value="" style="shape=umlBoundary;whiteSpace=wrap;html=1;" parent="1" vertex="1">
          <mxGeometry x="157.5" y="60" width="35" height="30" as="geometry" />
        </mxCell>
        <mxCell id="qlyrx20pTb7VL4pUrBTq-32" value="" style="shape=umlBoundary;whiteSpace=wrap;html=1;" parent="1" vertex="1">
          <mxGeometry x="326.5" y="130" width="35" height="30" as="geometry" />
        </mxCell>
        <mxCell id="qlyrx20pTb7VL4pUrBTq-33" value="" style="shape=umlBoundary;whiteSpace=wrap;html=1;" parent="1" vertex="1">
          <mxGeometry x="491.5" y="220" width="35" height="30" as="geometry" />
        </mxCell>
        <mxCell id="qlyrx20pTb7VL4pUrBTq-34" value=":modificareGaraButton" style="text;html=1;strokeColor=none;fillColor=none;align=center;verticalAlign=middle;whiteSpace=wrap;rounded=0;" parent="1" vertex="1">
          <mxGeometry x="406.5" y="130" width="60" height="30" as="geometry" />
        </mxCell>
        <mxCell id="qlyrx20pTb7VL4pUrBTq-35" value=":modificareGaraForm" style="text;html=1;strokeColor=none;fillColor=none;align=center;verticalAlign=middle;whiteSpace=wrap;rounded=0;" parent="1" vertex="1">
          <mxGeometry x="564" y="220" width="60" height="30" as="geometry" />
        </mxCell>
        <mxCell id="qlyrx20pTb7VL4pUrBTq-36" value=":visualizzaSezioneCalendarioControl" style="text;html=1;strokeColor=none;fillColor=none;align=center;verticalAlign=middle;whiteSpace=wrap;rounded=0;" parent="1" vertex="1">
          <mxGeometry x="339" y="100" width="60" height="30" as="geometry" />
        </mxCell>
        <mxCell id="qlyrx20pTb7VL4pUrBTq-37" value="" style="endArrow=none;dashed=1;html=1;rounded=0;" parent="1" target="qlyrx20pTb7VL4pUrBTq-5" edge="1">
          <mxGeometry width="50" height="50" relative="1" as="geometry">
            <mxPoint x="260" y="680" as="sourcePoint" />
            <mxPoint x="264" y="190" as="targetPoint" />
          </mxGeometry>
        </mxCell>
        <mxCell id="qlyrx20pTb7VL4pUrBTq-38" value="" style="endArrow=none;dashed=1;html=1;rounded=0;" parent="1" target="qlyrx20pTb7VL4pUrBTq-10" edge="1">
          <mxGeometry width="50" height="50" relative="1" as="geometry">
            <mxPoint x="344" y="680" as="sourcePoint" />
            <mxPoint x="264" y="190" as="targetPoint" />
          </mxGeometry>
        </mxCell>
        <mxCell id="qlyrx20pTb7VL4pUrBTq-39" value="" style="endArrow=none;dashed=1;html=1;rounded=0;" parent="1" target="qlyrx20pTb7VL4pUrBTq-21" edge="1">
          <mxGeometry width="50" height="50" relative="1" as="geometry">
            <mxPoint x="420" y="680" as="sourcePoint" />
            <mxPoint x="274" y="200" as="targetPoint" />
          </mxGeometry>
        </mxCell>
        <mxCell id="qlyrx20pTb7VL4pUrBTq-40" value="" style="endArrow=none;dashed=1;html=1;rounded=0;" parent="1" source="qlyrx20pTb7VL4pUrBTq-43" target="qlyrx20pTb7VL4pUrBTq-25" edge="1">
          <mxGeometry width="50" height="50" relative="1" as="geometry">
            <mxPoint x="504" y="410" as="sourcePoint" />
            <mxPoint x="414" y="380" as="targetPoint" />
            <Array as="points" />
          </mxGeometry>
        </mxCell>
        <mxCell id="qlyrx20pTb7VL4pUrBTq-41" value="" style="endArrow=none;dashed=1;html=1;rounded=0;entryX=0.5;entryY=1;entryDx=0;entryDy=0;" parent="1" target="qlyrx20pTb7VL4pUrBTq-26" edge="1">
          <mxGeometry width="50" height="50" relative="1" as="geometry">
            <mxPoint x="725" y="680" as="sourcePoint" />
            <mxPoint x="589" y="400" as="targetPoint" />
            <Array as="points" />
          </mxGeometry>
        </mxCell>
        <mxCell id="qlyrx20pTb7VL4pUrBTq-42" value="" style="endArrow=none;dashed=1;html=1;rounded=0;" parent="1" target="qlyrx20pTb7VL4pUrBTq-43" edge="1">
          <mxGeometry width="50" height="50" relative="1" as="geometry">
            <mxPoint x="504" y="410" as="sourcePoint" />
            <mxPoint x="504" y="380" as="targetPoint" />
            <Array as="points">
              <mxPoint x="504" y="410" />
            </Array>
          </mxGeometry>
        </mxCell>
        <mxCell id="qlyrx20pTb7VL4pUrBTq-43" value="" style="shape=umlDestroy;whiteSpace=wrap;html=1;strokeWidth=3;targetShapes=umlLifeline;" parent="1" vertex="1">
          <mxGeometry x="489" y="400" width="30" height="30" as="geometry" />
        </mxCell>
        <mxCell id="qlyrx20pTb7VL4pUrBTq-44" value="" style="ellipse;shape=umlControl;whiteSpace=wrap;html=1;" parent="1" vertex="1">
          <mxGeometry x="241.5" y="100" width="25" height="30" as="geometry" />
        </mxCell>
        <mxCell id="qlyrx20pTb7VL4pUrBTq-45" value="" style="edgeStyle=elbowEdgeStyle;rounded=0;orthogonalLoop=1;jettySize=auto;html=1;elbow=vertical;curved=0;" parent="1" source="qlyrx20pTb7VL4pUrBTq-1" target="qlyrx20pTb7VL4pUrBTq-47" edge="1">
          <mxGeometry relative="1" as="geometry">
            <mxPoint x="80" y="215" as="sourcePoint" />
            <mxPoint x="260" y="215" as="targetPoint" />
            <Array as="points">
              <mxPoint x="150" y="100" />
            </Array>
          </mxGeometry>
        </mxCell>
        <mxCell id="qlyrx20pTb7VL4pUrBTq-46" value="1.Click()" style="edgeLabel;html=1;align=center;verticalAlign=middle;resizable=0;points=[];" parent="qlyrx20pTb7VL4pUrBTq-45" vertex="1" connectable="0">
          <mxGeometry x="0.2133" y="-6" relative="1" as="geometry">
            <mxPoint x="-14" y="-16" as="offset" />
          </mxGeometry>
        </mxCell>
        <mxCell id="qlyrx20pTb7VL4pUrBTq-47" value="" style="html=1;points=[];perimeter=orthogonalPerimeter;outlineConnect=0;targetShapes=umlLifeline;portConstraint=eastwest;newEdgeStyle={&quot;edgeStyle&quot;:&quot;elbowEdgeStyle&quot;,&quot;elbow&quot;:&quot;vertical&quot;,&quot;curved&quot;:0,&quot;rounded&quot;:0};" parent="1" vertex="1">
          <mxGeometry x="170" y="100" width="10" height="40" as="geometry" />
        </mxCell>
        <mxCell id="qlyrx20pTb7VL4pUrBTq-48" value=":accedereSezioneCalendarioButton" style="text;html=1;strokeColor=none;fillColor=none;align=center;verticalAlign=middle;whiteSpace=wrap;rounded=0;" parent="1" vertex="1">
          <mxGeometry x="259" y="60" width="60" height="30" as="geometry" />
        </mxCell>
        <mxCell id="qlyrx20pTb7VL4pUrBTq-49" value="" style="html=1;points=[[0,0,0,0,5],[0,1,0,0,-5],[1,0,0,0,5],[1,1,0,0,-5]];perimeter=orthogonalPerimeter;outlineConnect=0;targetShapes=umlLifeline;portConstraint=eastwest;newEdgeStyle={&quot;curved&quot;:0,&quot;rounded&quot;:0};" parent="1" vertex="1">
          <mxGeometry x="554" y="340" width="10" height="80" as="geometry" />
        </mxCell>
        <mxCell id="qlyrx20pTb7VL4pUrBTq-50" value="" style="ellipse;shape=umlControl;whiteSpace=wrap;html=1;" parent="1" vertex="1">
          <mxGeometry x="550" y="300" width="25" height="30" as="geometry" />
        </mxCell>
        <mxCell id="qlyrx20pTb7VL4pUrBTq-51" value=":modifacaRisultatiControl" style="text;html=1;strokeColor=none;fillColor=none;align=center;verticalAlign=middle;whiteSpace=wrap;rounded=0;" parent="1" vertex="1">
          <mxGeometry x="617.5" y="300" width="60" height="30" as="geometry" />
        </mxCell>
        <mxCell id="qlyrx20pTb7VL4pUrBTq-52" value="" style="html=1;points=[[0,0,0,0,5],[0,1,0,0,-5],[1,0,0,0,5],[1,1,0,0,-5]];perimeter=orthogonalPerimeter;outlineConnect=0;targetShapes=umlLifeline;portConstraint=eastwest;newEdgeStyle={&quot;curved&quot;:0,&quot;rounded&quot;:0};" parent="1" vertex="1">
          <mxGeometry x="642.5" y="420" width="10" height="70" as="geometry" />
        </mxCell>
        <mxCell id="qlyrx20pTb7VL4pUrBTq-53" value="" style="endArrow=classic;html=1;rounded=0;" parent="1" source="qlyrx20pTb7VL4pUrBTq-49" target="qlyrx20pTb7VL4pUrBTq-52" edge="1">
          <mxGeometry width="50" height="50" relative="1" as="geometry">
            <mxPoint x="390" y="340" as="sourcePoint" />
            <mxPoint x="640" y="420" as="targetPoint" />
          </mxGeometry>
        </mxCell>
        <mxCell id="qlyrx20pTb7VL4pUrBTq-54" value="5:create" style="edgeLabel;html=1;align=center;verticalAlign=middle;resizable=0;points=[];" parent="qlyrx20pTb7VL4pUrBTq-53" vertex="1" connectable="0">
          <mxGeometry x="-0.0675" relative="1" as="geometry">
            <mxPoint x="-7" y="-10" as="offset" />
          </mxGeometry>
        </mxCell>
        <mxCell id="qlyrx20pTb7VL4pUrBTq-55" value="" style="shape=umlBoundary;whiteSpace=wrap;html=1;" parent="1" vertex="1">
          <mxGeometry x="627.5" y="380" width="35" height="30" as="geometry" />
        </mxCell>
        <mxCell id="qlyrx20pTb7VL4pUrBTq-56" value=":modificareRisultatiForm" style="text;html=1;strokeColor=none;fillColor=none;align=center;verticalAlign=middle;whiteSpace=wrap;rounded=0;" parent="1" vertex="1">
          <mxGeometry x="710" y="380" width="60" height="30" as="geometry" />
        </mxCell>
        <mxCell id="qlyrx20pTb7VL4pUrBTq-57" value="" style="html=1;points=[];perimeter=orthogonalPerimeter;outlineConnect=0;targetShapes=umlLifeline;portConstraint=eastwest;newEdgeStyle={&quot;edgeStyle&quot;:&quot;elbowEdgeStyle&quot;,&quot;elbow&quot;:&quot;vertical&quot;,&quot;curved&quot;:0,&quot;rounded&quot;:0};" parent="1" vertex="1">
          <mxGeometry x="554" y="485" width="10" height="65" as="geometry" />
        </mxCell>
        <mxCell id="qlyrx20pTb7VL4pUrBTq-58" value="" style="endArrow=none;dashed=1;html=1;rounded=0;" parent="1" target="qlyrx20pTb7VL4pUrBTq-57" edge="1">
          <mxGeometry width="50" height="50" relative="1" as="geometry">
            <mxPoint x="559" y="680" as="sourcePoint" />
            <mxPoint x="414" y="375" as="targetPoint" />
          </mxGeometry>
        </mxCell>
        <mxCell id="qlyrx20pTb7VL4pUrBTq-59" value="" style="endArrow=classic;html=1;rounded=0;" parent="1" source="qlyrx20pTb7VL4pUrBTq-52" target="qlyrx20pTb7VL4pUrBTq-57" edge="1">
          <mxGeometry width="50" height="50" relative="1" as="geometry">
            <mxPoint x="390" y="340" as="sourcePoint" />
            <mxPoint x="440" y="290" as="targetPoint" />
          </mxGeometry>
        </mxCell>
        <mxCell id="qlyrx20pTb7VL4pUrBTq-60" value="5.2:save" style="edgeLabel;html=1;align=center;verticalAlign=middle;resizable=0;points=[];" parent="qlyrx20pTb7VL4pUrBTq-59" vertex="1" connectable="0">
          <mxGeometry x="0.2968" y="1" relative="1" as="geometry">
            <mxPoint x="3" y="-16" as="offset" />
          </mxGeometry>
        </mxCell>
        <mxCell id="qlyrx20pTb7VL4pUrBTq-61" value="" style="endArrow=classic;html=1;rounded=0;" parent="1" source="qlyrx20pTb7VL4pUrBTq-1" target="qlyrx20pTb7VL4pUrBTq-52" edge="1">
          <mxGeometry width="50" height="50" relative="1" as="geometry">
            <mxPoint x="266.5" y="625" as="sourcePoint" />
            <mxPoint x="829.5" y="625" as="targetPoint" />
            <Array as="points">
              <mxPoint x="360" y="450" />
            </Array>
          </mxGeometry>
        </mxCell>
        <mxCell id="qlyrx20pTb7VL4pUrBTq-62" value="5.1: Inserimento risultati" style="edgeLabel;html=1;align=center;verticalAlign=middle;resizable=0;points=[];" parent="qlyrx20pTb7VL4pUrBTq-61" vertex="1" connectable="0">
          <mxGeometry x="-0.6373" y="4" relative="1" as="geometry">
            <mxPoint x="-24" y="-11" as="offset" />
          </mxGeometry>
        </mxCell>
        <mxCell id="qlyrx20pTb7VL4pUrBTq-63" value="" style="endArrow=none;dashed=1;html=1;rounded=0;" parent="1" target="qlyrx20pTb7VL4pUrBTq-52" edge="1">
          <mxGeometry width="50" height="50" relative="1" as="geometry">
            <mxPoint x="648" y="530" as="sourcePoint" />
            <mxPoint x="569" y="565" as="targetPoint" />
          </mxGeometry>
        </mxCell>
        <mxCell id="qlyrx20pTb7VL4pUrBTq-64" value="" style="html=1;points=[[0,0,0,0,5],[0,1,0,0,-5],[1,0,0,0,5],[1,1,0,0,-5]];perimeter=orthogonalPerimeter;outlineConnect=0;targetShapes=umlLifeline;portConstraint=eastwest;newEdgeStyle={&quot;curved&quot;:0,&quot;rounded&quot;:0};" parent="1" vertex="1">
          <mxGeometry x="642.5" y="530" width="10" height="20" as="geometry" />
        </mxCell>
        <mxCell id="qlyrx20pTb7VL4pUrBTq-65" value="" style="endArrow=none;dashed=1;html=1;rounded=0;" parent="1" source="qlyrx20pTb7VL4pUrBTq-66" target="qlyrx20pTb7VL4pUrBTq-64" edge="1">
          <mxGeometry width="50" height="50" relative="1" as="geometry">
            <mxPoint x="648" y="600" as="sourcePoint" />
            <mxPoint x="569" y="675" as="targetPoint" />
          </mxGeometry>
        </mxCell>
        <mxCell id="qlyrx20pTb7VL4pUrBTq-66" value="" style="shape=umlDestroy;whiteSpace=wrap;html=1;strokeWidth=3;targetShapes=umlLifeline;" parent="1" vertex="1">
          <mxGeometry x="632.5" y="585" width="30" height="30" as="geometry" />
        </mxCell>
        <mxCell id="qlyrx20pTb7VL4pUrBTq-67" value="" style="endArrow=classic;html=1;rounded=0;entryX=0;entryY=0.5;entryDx=0;entryDy=0;" parent="1" source="qlyrx20pTb7VL4pUrBTq-57" target="qlyrx20pTb7VL4pUrBTq-26" edge="1">
          <mxGeometry width="50" height="50" relative="1" as="geometry">
            <mxPoint x="390" y="450" as="sourcePoint" />
            <mxPoint x="440" y="400" as="targetPoint" />
          </mxGeometry>
        </mxCell>
        <mxCell id="qlyrx20pTb7VL4pUrBTq-68" value="6:modify&lt;br&gt;" style="edgeLabel;html=1;align=center;verticalAlign=middle;resizable=0;points=[];" parent="qlyrx20pTb7VL4pUrBTq-67" vertex="1" connectable="0">
          <mxGeometry x="-0.3294" y="-1" relative="1" as="geometry">
            <mxPoint x="-10" y="-16" as="offset" />
          </mxGeometry>
        </mxCell>
        <mxCell id="qlyrx20pTb7VL4pUrBTq-69" value="" style="endArrow=classic;html=1;rounded=0;" parent="1" source="qlyrx20pTb7VL4pUrBTq-57" target="qlyrx20pTb7VL4pUrBTq-64" edge="1">
          <mxGeometry width="50" height="50" relative="1" as="geometry">
            <mxPoint x="390" y="450" as="sourcePoint" />
            <mxPoint x="440" y="400" as="targetPoint" />
            <Array as="points">
              <mxPoint x="600" y="550" />
            </Array>
          </mxGeometry>
        </mxCell>
        <mxCell id="qlyrx20pTb7VL4pUrBTq-70" value="5.3:destroy" style="edgeLabel;html=1;align=center;verticalAlign=middle;resizable=0;points=[];" parent="qlyrx20pTb7VL4pUrBTq-69" vertex="1" connectable="0">
          <mxGeometry x="-0.3732" y="1" relative="1" as="geometry">
            <mxPoint x="11" y="-9" as="offset" />
          </mxGeometry>
        </mxCell>
        <mxCell id="qlyrx20pTb7VL4pUrBTq-71" value=":Garamodificata" style="text;html=1;strokeColor=none;fillColor=none;align=center;verticalAlign=middle;whiteSpace=wrap;rounded=0;" parent="1" vertex="1">
          <mxGeometry x="770" y="500" width="60" height="30" as="geometry" />
        </mxCell>
      </root>
    </mxGraphModel>
  </diagram>
</mxfile>
